# xmcd
#
# Track frame offsets:
#	150
#	18617
#	25932
#	32842
#	39770
#	54842
#	78752
#	106677
#	114857
#	122900
#	140620
#	165137
#	186550
#	213020
#	221880
#	247742
#	258090
#	270435
#	298607
#
# Disc length: 4043 seconds
#
# Revision: 0
# Processed by: cddbd v1.4b41PL3 Copyright (c) Steve Scherf et al.
# Submitted via: EZCDDA 4.3.3.2
#
DISCID=f40fc913
DTITLE=The Temptation Review Featuring Dennis Edwards - Live At Casino san Pab
DTITLE=lo
DYEAR=1900
DGENRE=
TTITLE0=Standing on the Top
TTITLE1=Psychedelic Shack
TTITLE2=Cloud 9
TTITLE3=Can't get Next to you
TTITLE4=Ball of Confusion (That's What The World Is today)
TTITLE5=Rainy Night In Georgia
TTITLE6=Naturally
TTITLE7=Get Ready
TTITLE8=Aint to Proud
TTITLE9=Lady Soul
TTITLE10=Papa Was A rolling Stone
TTITLE11=Don't Look back
TTITLE12=Song for You
TTITLE13=Why You Wanna Make Me Blue
TTITLE14=Wish it would Rain
TTITLE15=The way you do the things you do
TTITLE16=Try to Remember
TTITLE17=My Girl
TTITLE18=Just My Imagination
EXTD=
EXTT0=
EXTT1=
EXTT2=
EXTT3=
EXTT4=
EXTT5=
EXTT6=
EXTT7=
EXTT8=
EXTT9=
EXTT10=
EXTT11=
EXTT12=
EXTT13=
EXTT14=
EXTT15=
EXTT16=
EXTT17=
EXTT18=
PLAYORDER=
